<mxfile host="app.diagrams.net" modified="2023-12-12T13:18:26.903Z" agent="Mozilla/5.0 (X11; Linux x86_64; rv:109.0) Gecko/20100101 Firefox/115.0" etag="gHa9AiRd7fqUWRL1VrLV" version="22.1.7" type="device">
  <diagram name="Page-1" id="9_mFq0civm15Da1i-6T6">
    <mxGraphModel dx="1514" dy="959" grid="0" gridSize="10" guides="1" tooltips="1" connect="1" arrows="1" fold="1" page="0" pageScale="1" pageWidth="827" pageHeight="1169" math="0" shadow="0">
      <root>
        <mxCell id="0" />
        <mxCell id="1" parent="0" />
        <mxCell id="t6TPrYgb71FmuXRUEV4Q-4" value="" style="edgeStyle=none;curved=1;rounded=0;orthogonalLoop=1;jettySize=auto;html=1;fontSize=12;startSize=8;endSize=8;" parent="1" source="t6TPrYgb71FmuXRUEV4Q-1" edge="1">
          <mxGeometry relative="1" as="geometry">
            <mxPoint x="159" y="107" as="targetPoint" />
          </mxGeometry>
        </mxCell>
        <mxCell id="t6TPrYgb71FmuXRUEV4Q-1" value="Utilisateur 1" style="shape=umlActor;verticalLabelPosition=bottom;verticalAlign=top;html=1;outlineConnect=0;fontSize=16;" parent="1" vertex="1">
          <mxGeometry x="9" y="-8" width="30" height="60" as="geometry" />
        </mxCell>
        <mxCell id="t6TPrYgb71FmuXRUEV4Q-7" style="edgeStyle=none;curved=1;rounded=0;orthogonalLoop=1;jettySize=auto;html=1;fontSize=12;startSize=8;endSize=8;" parent="1" source="t6TPrYgb71FmuXRUEV4Q-2" edge="1">
          <mxGeometry relative="1" as="geometry">
            <mxPoint x="160" y="132" as="targetPoint" />
          </mxGeometry>
        </mxCell>
        <mxCell id="t6TPrYgb71FmuXRUEV4Q-2" value="Utilisateur 2" style="shape=umlActor;verticalLabelPosition=bottom;verticalAlign=top;html=1;outlineConnect=0;fontSize=16;" parent="1" vertex="1">
          <mxGeometry x="9" y="104" width="30" height="60" as="geometry" />
        </mxCell>
        <mxCell id="t6TPrYgb71FmuXRUEV4Q-8" style="edgeStyle=none;curved=1;rounded=0;orthogonalLoop=1;jettySize=auto;html=1;fontSize=12;startSize=8;endSize=8;" parent="1" source="t6TPrYgb71FmuXRUEV4Q-3" edge="1">
          <mxGeometry relative="1" as="geometry">
            <mxPoint x="161" y="162" as="targetPoint" />
          </mxGeometry>
        </mxCell>
        <mxCell id="t6TPrYgb71FmuXRUEV4Q-3" value="Utilisateur X" style="shape=umlActor;verticalLabelPosition=bottom;verticalAlign=top;html=1;outlineConnect=0;fontSize=16;" parent="1" vertex="1">
          <mxGeometry x="9" y="216" width="30" height="60" as="geometry" />
        </mxCell>
        <mxCell id="t6TPrYgb71FmuXRUEV4Q-13" style="edgeStyle=none;curved=1;rounded=0;orthogonalLoop=1;jettySize=auto;html=1;fontSize=12;startSize=8;endSize=8;" parent="1" source="t6TPrYgb71FmuXRUEV4Q-5" edge="1">
          <mxGeometry relative="1" as="geometry">
            <mxPoint x="337" y="135" as="targetPoint" />
          </mxGeometry>
        </mxCell>
        <mxCell id="t6TPrYgb71FmuXRUEV4Q-5" value="" style="sketch=0;outlineConnect=0;fontColor=#232F3E;gradientColor=none;fillColor=#232F3D;strokeColor=none;dashed=0;verticalLabelPosition=bottom;verticalAlign=top;align=center;html=1;fontSize=12;fontStyle=0;aspect=fixed;pointerEvents=1;shape=mxgraph.aws4.servers;" parent="1" vertex="1">
          <mxGeometry x="167" y="95" width="78" height="78" as="geometry" />
        </mxCell>
        <mxCell id="t6TPrYgb71FmuXRUEV4Q-6" value="&lt;div&gt;Serveur&lt;/div&gt;&lt;div&gt;Cache Proxy&lt;br&gt;&lt;/div&gt;" style="text;html=1;strokeColor=none;fillColor=none;align=center;verticalAlign=middle;whiteSpace=wrap;rounded=0;fontSize=16;" parent="1" vertex="1">
          <mxGeometry x="148" y="182" width="116" height="30" as="geometry" />
        </mxCell>
        <mxCell id="t6TPrYgb71FmuXRUEV4Q-12" value="Routeur" style="text;html=1;strokeColor=none;fillColor=none;align=center;verticalAlign=middle;whiteSpace=wrap;rounded=0;fontSize=16;" parent="1" vertex="1">
          <mxGeometry x="370.72" y="175" width="60" height="30" as="geometry" />
        </mxCell>
        <mxCell id="5fuYL55tHCrdXvVIJxwQ-1" value="" style="verticalLabelPosition=bottom;sketch=0;aspect=fixed;html=1;verticalAlign=top;align=center;outlineConnect=0;shape=mxgraph.citrix.router;" parent="1" vertex="1">
          <mxGeometry x="351" y="101" width="99.45" height="66" as="geometry" />
        </mxCell>
      </root>
    </mxGraphModel>
  </diagram>
</mxfile>
